<svg width="210" height="175" viewBox="0 0 210 175" fill="none" xmlns="http://www.w3.org/2000/svg">
<path d="M80.1563 36.4544C74.4424 37.488 65.5693 44.8607 65.4318 51.5415C65.2776 58.5433 69.487 65.9868 73.8006 65.3992C77.2139 64.9324 79.3103 59.9311 80.719 56.5719C82.0193 53.4712 84.9992 46.3527 82.0443 41.7641C79.7104 38.1381 86.7413 35.2624 80.1563 36.4544Z" fill="#FA6081"/>
<path d="M113.986 78.2357H110.923C108.837 78.2357 107.147 79.9263 107.147 82.0117V91.935C107.147 94.0204 108.837 95.7109 110.923 95.7109H113.986C116.071 95.7109 117.762 94.0204 117.762 91.935V82.0117C117.762 79.9263 116.071 78.2357 113.986 78.2357Z" fill="white"/>
<path d="M128.581 69.6877H125.518C123.433 69.6877 121.742 71.3783 121.742 73.4637V91.935C121.742 94.0204 123.433 95.711 125.518 95.711H128.581C130.667 95.711 132.357 94.0204 132.357 91.935V73.4637C132.357 71.3783 130.667 69.6877 128.581 69.6877Z" fill="white"/>
<path d="M143.181 56.4928H140.118C138.032 56.4928 136.342 58.1833 136.342 60.2687V91.935C136.342 94.0204 138.032 95.7109 140.118 95.7109H143.181C145.266 95.7109 146.957 94.0204 146.957 91.935V60.2687C146.957 58.1833 145.266 56.4928 143.181 56.4928Z" fill="white"/>
<path d="M157.776 45.3733H154.713C152.627 45.3733 150.937 47.0638 150.937 49.1492V91.935C150.937 94.0204 152.627 95.7109 154.713 95.7109H157.776C159.862 95.7109 161.552 94.0204 161.552 91.935V49.1492C161.552 47.0638 159.862 45.3733 157.776 45.3733Z" fill="white"/>
<path d="M172.376 30.728H169.312C167.227 30.728 165.536 32.4185 165.536 34.5039V91.935C165.536 94.0204 167.227 95.711 169.312 95.711H172.376C174.461 95.711 176.152 94.0204 176.152 91.935V34.5039C176.152 32.4185 174.461 30.728 172.376 30.728Z" fill="white"/>
<path d="M41.4301 113.761C41.4301 113.761 37.2916 141.931 36.7539 151.742C36.5122 156.164 45.2852 157.481 49.1737 156.03C53.1997 154.53 51.8452 146.286 55.3836 126.702C57.2757 116.233 59.5888 117.95 57.109 114.845C53.9541 110.902 46.4314 110.911 41.4301 113.761Z" fill="#FFB085"/>
<path d="M60.8347 97.8782C65.3942 97.0155 68.5658 95.8652 70.3496 89.1635C71.7291 83.9747 72.7919 76.6186 72.6002 76.0393L88.4375 85.1208L88.1249 92.2643C88.1249 97.6323 92.8594 98.5158 92.8594 98.5158L98.6025 99.5703L101.103 100.016C113.065 102.1 112.773 104.709 115.219 108.827C86.1286 124.31 41.2256 113.515 41.2256 113.515C45.3933 105.426 51.6824 99.6703 60.8347 97.8782Z" fill="#FFB085"/>
<path d="M100.07 126.481C100.62 132.733 118.029 152.263 121.204 156.285C124.797 160.844 129.773 148.478 127.998 146.524C124.547 142.723 114.519 111.953 108.585 110.181C104.821 109.06 99.6155 121.313 100.07 126.481Z" fill="#FFB085"/>
<path d="M58.6472 150.083C58.8973 152.584 55.4589 147.845 55.0171 153.355C54.9755 153.888 54.1836 155.534 54.2836 156.493C54.2836 156.493 56.2466 157.222 56.0341 156.493L101.241 155.984C101.575 151.85 102.671 142.023 103.575 139.73C105.78 134.171 107.138 131.858 104.296 123.059C103.671 121.122 103.946 122.643 103.521 121.576L119.175 116.7C118.808 116.054 114.049 106.489 112.682 104.359C110.635 101.175 101.991 99.737 97.4861 99.3577C97.139 100.729 96.5657 102.034 95.7899 103.217C92.5016 108.427 81.5822 109.627 73.7635 106.43C66.8576 103.605 64.5945 96.8446 64.5945 96.8446C64.5945 96.8446 52.8124 96.3611 47.9237 99.6244C44.0727 102.2 37.2627 119.759 37.2627 119.759L55.3964 126.71C55.2964 130.499 57.9262 142.81 58.6472 150.083Z" fill="#4488DD"/>
<path d="M28 157C28 157.552 28.4477 158 29 158H178C178.552 158 179 157.552 179 157C179 156.448 178.552 156 178 156H29C28.4477 156 28 156.448 28 157Z" fill="black"/>
<path d="M72.7256 76.8604C72.7256 76.8604 74.7011 89.7803 88.2045 90.4305C88.267 88.4757 88.3837 86.1961 88.3837 86.1961L72.7256 76.8604Z" fill="#D16D4A"/>
<path d="M104.992 53.5794C106.697 58.7599 104.233 70.7004 102.341 75.6433C100.962 79.3942 95.2558 87.5463 85.9785 86.8961C77.1555 86.271 70.6247 77.5605 70.833 67.8163L71.3165 57.8138C71.3165 57.8138 76.4053 60.7104 81.6524 46.04C88.8376 46.8819 99.1985 53.9587 104.992 53.5794Z" fill="#FFB085"/>
<path d="M86.6157 64.2104C86.952 62.7383 86.4006 61.3568 85.3841 61.1245C84.3676 60.8923 83.2709 61.8973 82.9346 63.3693C82.5983 64.8413 83.1497 66.2229 84.1662 66.4552C85.1827 66.6874 86.2794 65.6824 86.6157 64.2104Z" fill="#252833"/>
<path d="M81.3691 59.2976C81.7717 60.0255 82.3435 60.6458 83.0361 61.1064C83.3616 61.328 83.7147 61.506 84.0864 61.6357C84.4464 61.7637 84.8197 61.8504 85.1992 61.8941H85.2242C85.39 61.9179 85.5396 62.0065 85.64 62.1406C85.7404 62.2746 85.7835 62.4431 85.7597 62.6089C85.736 62.7747 85.6473 62.9243 85.5133 63.0247C85.3792 63.1251 85.2108 63.1682 85.045 63.1444C84.9949 63.1362 84.946 63.1222 84.8991 63.1028C84.4591 62.9374 84.0396 62.7221 83.6488 62.4609C83.2686 62.2093 82.9226 61.9095 82.6194 61.569C82.0275 60.9224 81.5988 60.1436 81.3691 59.2976Z" fill="#252833"/>
<path d="M93.9689 133.325L110.256 133.383L114.161 101.604L111.123 101.562C110.384 101.544 109.655 101.726 109.011 102.088C108.368 102.45 107.834 102.98 107.468 103.621L92.1184 130.12C91.93 130.444 91.8305 130.813 91.8301 131.188C91.8297 131.564 91.9283 131.933 92.116 132.258C92.3037 132.583 92.5739 132.853 92.8992 133.04C93.2245 133.227 93.5935 133.325 93.9689 133.325Z" fill="#4C5269"/>
<path d="M94.9897 133.329L110.093 133.383C110.592 133.385 111.083 133.255 111.516 133.006C111.948 132.757 112.307 132.398 112.556 131.966L127.06 106.772C127.359 106.253 127.517 105.664 127.517 105.064C127.517 104.464 127.36 103.875 127.061 103.356C126.761 102.836 126.331 102.404 125.812 102.103C125.293 101.802 124.705 101.643 124.105 101.642L114.578 101.604C113.395 101.599 112.233 101.908 111.208 102.498C110.183 103.088 109.333 103.938 108.743 104.963L93.6936 131.107C93.5625 131.333 93.4937 131.59 93.4941 131.851C93.4945 132.113 93.564 132.369 93.6957 132.595C93.8274 132.821 94.0165 133.007 94.2438 133.136C94.4711 133.265 94.7284 133.332 94.9897 133.329Z" fill="#252833"/>
<path d="M123.889 107.719C124.216 107.093 124.082 106.376 123.588 106.118C123.095 105.859 122.429 106.158 122.101 106.784C121.774 107.41 121.908 108.127 122.402 108.385C122.896 108.643 123.561 108.345 123.889 107.719Z" fill="#4C5269"/>
<path d="M115.786 107.218C117.031 107.257 118.267 107.437 119.471 107.756C121.045 108.348 122.519 109.177 123.843 110.215C125.175 111.438 126.439 112.734 127.631 114.095C130.132 116.95 126.381 117.775 126.739 119.275C127.156 121.134 127.318 121.513 124.143 124.151C121.071 126.702 121.75 130.374 119.141 132.937C116.061 135.963 115.024 136.871 113.602 136.663C112.181 136.455 111.231 133.841 111.294 132.02C111.406 128.686 115.044 125.593 115.507 125.31C117.545 124.06 115.582 121.684 111.227 119.188C110.306 118.658 109.881 116.687 110.072 115.612C110.072 115.612 108.618 114.245 109.301 113.111C109.985 111.978 110.718 112.694 110.314 111.827C109.664 110.444 110.693 109.819 111.148 109.431C111.344 109.264 110.956 109.331 111.089 108.493C111.281 107.243 112.911 107.272 113.173 107.243C114.043 107.187 114.915 107.179 115.786 107.218Z" fill="#FFB085"/>
<path d="M109.185 109.452C112.907 109.598 116.687 110.048 119.992 111.869C122.284 113.119 123.843 115.795 125.41 117.812C125.556 118 125.881 117.812 125.735 117.625C124.118 115.541 122.567 112.844 120.196 111.548C116.816 109.698 112.986 109.227 109.201 109.081C108.96 109.081 108.96 109.448 109.201 109.456L109.185 109.452Z" fill="#D16D4A"/>
<path d="M106.488 111.615C113.157 112.553 119.45 113.557 123.288 119.746C123.413 119.95 123.738 119.746 123.613 119.559C119.725 113.307 113.402 112.215 106.588 111.257C106.351 111.223 106.251 111.586 106.488 111.619V111.615Z" fill="#D16D4A"/>
<path d="M104.042 114.653C110.71 115.591 117.003 116.595 120.842 122.784C120.967 122.989 121.292 122.784 121.167 122.597C117.278 116.345 110.956 115.253 104.142 114.295C103.904 114.261 103.804 114.624 104.042 114.657V114.653Z" fill="#D16D4A"/>
<path d="M100.856 66.3357C101.218 64.8698 100.691 63.4787 99.6792 63.2286C98.6669 62.9784 97.5527 63.964 97.1905 65.4299C96.8283 66.8957 97.3552 68.2868 98.3675 68.5369C99.3797 68.7871 100.494 67.8015 100.856 66.3357Z" fill="#252833"/>
<path d="M103.742 63.7863C103.515 64.0813 103.24 64.3363 102.929 64.5406C102.615 64.7509 102.278 64.9257 101.925 65.0616C101.568 65.1969 101.2 65.3001 100.824 65.37C100.637 65.4075 100.445 65.4283 100.253 65.4575L99.6787 65.4992C99.5682 65.5075 99.4589 65.4715 99.3748 65.3992C99.2908 65.3269 99.239 65.2242 99.2307 65.1137C99.2224 65.0031 99.2583 64.8938 99.3306 64.8098C99.4029 64.7258 99.5057 64.6739 99.6162 64.6656H99.7204L100.241 64.724C100.412 64.724 100.591 64.749 100.762 64.7448C101.112 64.7468 101.462 64.7175 101.808 64.6573C102.157 64.5939 102.498 64.4918 102.825 64.3531C103.16 64.217 103.47 64.0253 103.742 63.7863Z" fill="#252833"/>
<path d="M93.4308 61.4773C92.3097 64.4448 92.7932 67.6872 93.5308 69.2168C94.2685 70.7463 92.343 71.2215 90.9844 71.2465" stroke="#D16D4A" stroke-width="0.833543" stroke-miterlimit="10" stroke-linecap="round"/>
<path d="M71.9915 58.1683C63.7561 50.633 59.976 65.741 70.8454 67.8082C71.8431 64.6983 72.2322 61.4254 71.9915 58.1683Z" fill="#FFB085"/>
<path d="M69.1492 61.144C69.1294 60.8482 69.0504 60.5593 68.9168 60.2946C68.7832 60.0299 68.5978 59.7947 68.3715 59.603C68.1452 59.4114 67.8828 59.2671 67.5997 59.1789C67.3166 59.0907 67.0187 59.0602 66.7236 59.0894" stroke="#D16D4A" stroke-width="0.833543" stroke-miterlimit="10" stroke-linecap="round"/>
<path d="M88.1922 57.3555C87.067 56.7084 85.8245 56.2909 84.5369 56.1271C83.2492 55.9633 81.9418 56.0564 80.6904 56.4011" stroke="#D6457C" stroke-width="1.25031" stroke-linecap="round" stroke-linejoin="round"/>
<path d="M104.905 60.6647C104.905 60.6647 101.687 58.5809 98.1572 59.5728" stroke="#D6457C" stroke-width="1.25031" stroke-linecap="round" stroke-linejoin="round"/>
<path d="M84.7741 73.8722C87.8586 75.0313 91.1193 75.6516 94.414 75.706C94.414 75.706 92.3051 80.1363 88.4875 79.2611C85.2992 78.5317 84.374 73.6472 84.7741 73.8722Z" fill="white"/>
<path d="M68.1823 28.9733C71.5165 32.4117 73.0294 39.8511 69.6327 43.602C66.236 47.353 59.2134 45.9943 55.8793 42.5559C52.5451 39.1176 52.5951 33.2911 55.9918 29.536C59.3885 25.7809 64.8482 25.535 68.1823 28.9733Z" fill="#FA6081"/>
<path d="M101.42 28.4482C98.5026 32.0783 97.669 39.4176 101.27 42.7435C104.871 46.0693 111.556 44.1188 114.486 40.4887C117.416 36.8587 116.866 31.2406 113.261 27.9064C109.656 24.5722 104.35 24.8181 101.42 28.4482Z" fill="#FA6081"/>
<path d="M106.526 43.1853C106.676 44.6315 105.567 46.2944 104.442 46.3819C103.683 46.4402 103.312 45.7567 101.158 43.2228C98.6817 40.3054 97.9815 39.8094 98.2024 39.3718C98.5942 38.5966 101.366 39.0634 103.367 40.0595C104.625 40.6888 106.355 41.5473 106.526 43.1853Z" fill="#252833"/>
<path d="M87.0712 38.6466C83.2411 38.6966 78.5066 42.4226 75.8809 45.2108L87.0712 38.6466Z" fill="#FA6081"/>
<path d="M105.546 59.9978C106.74 58.0877 107.402 55.8935 107.463 53.642C107.442 52.4164 107.274 51.1978 106.963 50.012C104.379 40.5054 93.1389 35.0582 84.7701 35.1499C82.6862 35.1707 76.3555 36.4002 71.6876 40.9639C69.1287 43.4645 68.7994 45.4108 66.6114 50.908C65.5986 53.4545 65.4069 54.5173 65.8653 55.1924C66.9406 56.7762 71.0792 55.4842 73.5464 54.1005C77.6766 51.7874 79.8564 47.6947 80.9233 45.0774C80.3315 42.2392 78.4518 40.5429 76.9098 40.7555C75.2135 40.993 73.759 43.8146 74.1007 45.7901C74.6342 48.8742 82.1278 47.4071 88.2001 49.3868C93.1139 50.9789 98.5444 53.6212 105.546 59.9978Z" fill="#FA6081"/>
<path d="M63.4319 44.4481C63.3443 46.0401 64.6447 47.8072 65.8825 47.8448C66.716 47.8698 67.0911 47.0987 69.3167 44.2147C71.8798 40.8805 72.6217 40.3137 72.3591 39.8427C71.8881 39.0092 68.8791 39.6719 66.7369 40.8597C65.399 41.614 63.5319 42.6435 63.4319 44.4481Z" fill="#252833"/>
<path d="M101.283 118.196C101.316 118.196 105.78 117.171 105.78 117.171C109.947 116.258 108.793 113.87 108.793 113.87C108.793 113.87 102.621 114.207 98.5531 114.332C97.0446 114.379 95.567 114.772 94.2354 115.483L91.0637 117.175C88.8799 118.337 88.3463 117.196 86.0332 121.897C84.7829 124.46 83.2118 129.036 80.9028 131.391C76.8935 134.954 58.8723 147.666 47.2861 150.125C36.0332 152.513 38.3005 146.995 39.084 147.257C39.2757 147.32 39.1257 148.612 39.1882 148.62C39.2507 148.628 40.4385 143.665 39.7675 143.435C38.934 143.148 39.3966 132.103 38.538 138.184C38.538 138.317 36.9668 150.116 36.7542 151.758C36.4375 157.022 37.3419 162.207 41.4388 165.17C42.6891 165.929 44.0102 166.266 45.3147 165.758C63.115 158.835 71.2878 150.966 84.908 139.647C85.3379 139.288 85.8181 138.995 86.3334 138.776C87.8713 138.126 91.4763 136.275 92.585 132.779C93.6936 129.282 94.252 127.815 96.2942 126.765C98.3363 125.714 103.858 126.823 105.371 126.844C107.555 126.869 107.751 124.206 107.751 124.206L103.012 122.434C103.012 122.434 106.738 122.368 107.984 121.859C109.095 121.344 109.993 120.46 110.527 119.359L101.283 118.196Z" fill="#FFB085"/>
<path d="M107.226 124.156C107.226 124.156 98.724 120.888 96.165 121.947" stroke="#D16D4A" stroke-width="0.416771" stroke-linecap="round" stroke-linejoin="round"/>
<path d="M110.168 119.279C110.168 119.279 98.111 117.321 95.6104 118.287" stroke="#D16D4A" stroke-width="0.416771" stroke-linecap="round" stroke-linejoin="round"/>
<path d="M92.2642 113.015C93.2436 112.044 94.4939 110.931 95.6651 110.469C96.2444 110.244 102.108 110.085 103.904 110.394C104.792 110.544 104.583 111.507 104.396 111.973C104.167 112.549 103.783 112.807 101.437 113.04C99.7411 113.215 96.8195 113.486 95.2566 115.812C94.4856 116.962 95.5234 116.095 94.5356 117.404C93.5479 118.713 86.0085 122.084 86.3711 121.23C86.7795 120.25 89.7511 115.508 92.2642 113.015Z" fill="#FFB085"/>
<path d="M132.195 164.97C132.448 165.016 132.704 165.047 132.962 165.062C133.884 164.907 134.756 164.532 135.504 163.97C137.588 162.303 138.204 159.894 138.25 157.414C137.834 152.829 135.875 149.587 132.807 146.028C128.177 140.66 123.242 134.912 121.096 128.14L112.531 132.099L117.724 147.799C118.808 151.071 119.908 154.384 121.78 157.247C123.651 160.11 128.902 164.337 132.195 164.97Z" fill="#FFB085"/>
<path d="M111.198 133.17C112.815 136.817 114.949 140.23 116.657 143.827C118.091 146.811 119.512 149.808 121.042 152.746C121.154 152.959 121.459 152.771 121.367 152.559C119.837 149.641 118.412 146.628 116.982 143.64C115.257 140.043 113.144 136.63 111.523 132.983C111.427 132.762 111.106 132.954 111.198 133.17Z" fill="#D16D4A"/>
<path d="M121.433 127.823C120.186 129.898 118.814 131.896 117.324 133.804C117.178 133.991 117.441 134.258 117.591 134.071C119.102 132.139 120.494 130.116 121.759 128.015C121.783 127.972 121.79 127.921 121.777 127.873C121.764 127.824 121.733 127.783 121.69 127.759C121.647 127.734 121.595 127.727 121.547 127.74C121.499 127.753 121.458 127.784 121.433 127.827V127.823Z" fill="#D16D4A"/>
<path d="M171.042 27.7022C171.388 27.3938 180.269 19 180.269 19L182.957 30.8238" stroke="#67AAF8" stroke-width="1.66709" stroke-miterlimit="10" stroke-linecap="round"/>
<path d="M110.956 87.8631C124.919 86.2376 138.11 80.5908 148.924 71.609C158.985 63.2736 166.887 52.5001 172.784 40.893C175.945 34.6479 178.571 28.1468 180.636 21.4589C180.994 20.3045 179.186 19.7919 178.827 20.9588C171.471 44.6606 156.772 67.7247 134.049 79.1526C126.807 82.7606 118.991 85.0765 110.952 85.996C109.768 86.1377 109.752 88.0132 110.952 87.8715L110.956 87.8631Z" fill="#67AAF8"/>
</svg>
