<svg width="210" height="175" viewBox="0 0 210 175" fill="none" xmlns="http://www.w3.org/2000/svg">
<path d="M28 156.744C28 157.297 28.4477 157.744 29 157.744H178C178.552 157.744 179 157.297 179 156.744C179 156.192 178.552 155.744 178 155.744H29C28.4477 155.744 28 156.192 28 156.744Z" fill="black"/>
<path d="M108.358 29.3111C111.125 29.9808 113.661 31.384 115.698 33.3728C120.47 38.1332 121.986 46.2079 118.89 51.4191C118.037 52.9382 116.769 54.1834 115.235 55.0097C111.734 56.8091 107.375 55.8545 105.401 54.3395C101.193 51.1348 101.75 40.7814 108.358 29.3111Z" fill="#8C4741"/>
<path d="M94.6216 17.0731C104.126 16.2851 106.807 22.1299 106.807 22.1299C111.348 19.5223 117.006 20.7896 120.584 24.4329C125.121 29.0471 127.083 41.4435 115.064 48.775C114.341 49.2177 102.859 47.8611 101.738 44.9325L94.7353 50.2981C93.4274 51.3014 92.0871 52.329 90.5192 52.8489C88.3787 53.5719 86.9327 53.3444 84.4632 53.3119C78.6792 53.2347 79.3738 56.3257 77.9197 55.9805C77.806 55.6606 77.6048 55.3791 77.3389 55.1681C67.3592 48.0317 70.6979 34.6726 77.542 34.4533C76.6931 25.2412 83.5371 17.991 94.6216 17.0731Z" fill="#8C4741"/>
<path d="M104.849 69.108L84.9913 66.736C85.1213 67.4427 84.772 71.6669 84.3902 75.7124C84.313 76.5248 83.7565 82 83.5778 83.6247C83.3991 85.2494 83.6753 88.1779 83.5778 89.0918C84.7232 91.5857 86.7054 90.0544 90.6574 93.3769C94.2358 96.3826 98.2732 98.5963 100.507 98.3769C103.757 98.056 105.349 87.2681 105.349 87.2681L104.849 69.108Z" fill="#FEA97A"/>
<path d="M85.251 67.7189C89.199 70.156 97.9399 77.9829 105.089 76.9309L105.149 80.2128C92.8465 81.1673 88.5898 75.2616 84.9504 68.84C84.9626 68.58 85.251 67.9626 85.251 67.7189Z" fill="#D16D4A"/>
<path d="M114.516 37.2802C107.749 39.9691 93.5167 38.052 86.0634 35.7936C84.5687 42.6417 83.2202 51.3907 83.2202 51.3907L83.1065 51.3095C82.5785 54.7335 83.0456 58.4013 82.6272 61.87C83.6792 69.5873 89.4022 77.5564 101.055 77.9992C110.085 78.3404 114.812 68.6572 115.129 62.6255C115.397 59.4411 117.103 36.2485 114.516 37.2802Z" fill="#FEA97A"/>
<path d="M104.301 69.3274C104.301 69.3274 100.621 70.7368 97.0586 67.4021" stroke="#D16D4A" stroke-width="1.21852" stroke-linecap="round" stroke-linejoin="round"/>
<path d="M99.0324 49.8472C99.0324 49.8472 96.3029 48.2591 92.3306 49.8757" stroke="#252833" stroke-width="1.21852" stroke-linecap="round" stroke-linejoin="round"/>
<path d="M113.683 50.3306C113.683 50.3306 111.311 48.5394 107.209 50.0016" stroke="#252833" stroke-width="1.21852" stroke-linecap="round" stroke-linejoin="round"/>
<path d="M97.4625 55.9554C97.5353 54.5283 96.7952 53.3307 95.8094 53.2804C94.8237 53.2301 93.9656 54.3463 93.8928 55.7733C93.82 57.2004 94.5601 58.3981 95.5458 58.4484C96.5316 58.4986 97.3897 57.3825 97.4625 55.9554Z" fill="#252833"/>
<path d="M111.453 56.3727C111.526 54.9456 110.786 53.7479 109.8 53.6976C108.814 53.6474 107.956 54.7635 107.883 56.1906C107.81 57.6177 108.551 58.8153 109.536 58.8656C110.522 58.9159 111.38 57.7997 111.453 56.3727Z" fill="#252833"/>
<path d="M104.406 53.2429C102.375 59.4451 107.505 62.8854 104.081 63.446C103.327 63.6 102.549 63.6 101.794 63.446" stroke="#D16D4A" stroke-width="1.21852" stroke-linecap="round" stroke-linejoin="round"/>
<path d="M41.4858 155.745H97.7084C98.3583 142.8 99.0366 149.746 101.965 144.096L119.191 145.582L139.833 123.763C139.833 123.763 133.5 100.046 124.041 92.4468C119.39 88.714 105.288 86.0292 105.288 86.0292C106.169 91.9472 92.6272 94.173 83.5126 83.5922C77.2657 84.4614 57.6434 85.6637 50.5028 97.524C46.1162 104.815 38.3745 124.616 34.7839 137.857C32.4484 146.439 35.7993 152.938 41.4858 155.745Z" fill="#74B5FF"/>
<path d="M98.6386 143.962L62.741 138.682" stroke="#2975CC" stroke-width="1.21852" stroke-miterlimit="10" stroke-linecap="round"/>
<path d="M70.0154 112.028L62.7246 138.665" stroke="#2975CC" stroke-width="1.21852" stroke-miterlimit="10" stroke-linecap="round"/>
<path d="M83.0942 51.3095C86.1933 50.7124 92.3347 43.9984 91.6686 39.5629C103.131 46.9309 120.223 44.8432 115.929 31.7319C118.184 34.0146 99.9586 20.6393 86.1202 31.8619C82.2941 34.9691 69.4752 53.9334 83.0942 51.3095Z" fill="#8C4741"/>
<path d="M126.181 153.978L118.635 144.766C116.598 143.36 114.288 142.397 111.855 141.94C109.422 141.483 106.92 141.542 104.512 142.114C103.123 142.443 93.2974 145.16 93.2974 145.16C87.3876 147.37 85.7182 155.721 91.2381 156.082C96.6402 156.435 99.5699 155.89 105.5 155C107.51 154.704 109.473 154.36 111.5 154.5L126.181 153.978Z" fill="#FEA472"/>
<path d="M108.992 145.692C109.816 146.416 110.552 147.234 111.185 148.129C111.185 148.129 113.448 151.72 113.756 153.279" stroke="#DB6943" stroke-width="0.812348" stroke-miterlimit="10" stroke-linecap="round"/>
<path d="M103.74 147.658C103.74 147.658 108.163 150.408 108.533 153.511" stroke="#DB6943" stroke-width="0.812348" stroke-miterlimit="10" stroke-linecap="round"/>
<path d="M77.8034 157.743H112.458C113.352 157.743 114.107 156.963 114.241 155.907V155.863C114.404 154.555 113.563 153.381 112.458 153.381H77.8034C76.8083 153.381 76 154.348 76 155.542V155.587C76 156.777 76.8083 157.743 77.8034 157.743Z" fill="#2975CC"/>
<path d="M175.235 52.5889H140.466C134.091 52.5889 128.923 57.7571 128.923 64.1324C128.923 70.5077 134.091 75.6758 140.466 75.6758H175.235C181.61 75.6758 186.778 70.5077 186.778 64.1324C186.778 57.7571 181.61 52.5889 175.235 52.5889Z" fill="white"/>
<path d="M134.13 70.7693L140.637 74.4127L142.887 74.8148L135.804 82.8448L134.13 70.7693Z" fill="white"/>
<path d="M146.482 65.9155C148.834 65.9155 148.838 62.2599 146.482 62.2599C144.126 62.2599 144.126 65.9155 146.482 65.9155Z" fill="#74B5FF"/>
<path d="M157.684 65.9155C160.036 65.9155 160.04 62.2599 157.684 62.2599C155.328 62.2599 155.328 65.9155 157.684 65.9155Z" fill="#74B5FF"/>
<path d="M169.223 66.017C171.575 66.017 171.579 62.3615 169.223 62.3615C166.868 62.3615 166.868 66.017 169.223 66.017Z" fill="#74B5FF"/>
<path d="M33.5086 71.2364H53.2324C58.4839 71.2364 62.741 66.9793 62.741 61.7279V53.2348C62.741 47.9833 58.4839 43.7262 53.2324 43.7262H33.5086C28.2572 43.7262 24.0001 47.9833 24.0001 53.2348V61.7279C24.0001 66.9793 28.2572 71.2364 33.5086 71.2364Z" fill="white"/>
<path d="M57.8223 66.3298L51.6729 69.9732L49.5486 70.3753L56.2383 78.4053L57.8223 66.3298Z" fill="white"/>
<path d="M50.0318 53.2388C50.0318 52.5158 49.8174 51.809 49.4158 51.2079C49.0141 50.6067 48.4432 50.1382 47.7752 49.8615C47.1072 49.5848 46.3722 49.5124 45.6631 49.6535C44.954 49.7945 44.3026 50.1427 43.7914 50.6539C43.2802 51.1652 42.932 51.8165 42.7909 52.5256C42.6499 53.2347 42.7223 53.9698 42.999 54.6377C43.2756 55.3057 43.7442 55.8766 44.3453 56.2783C44.9465 56.68 45.6533 56.8944 46.3763 56.8944C47.3458 56.8944 48.2756 56.5092 48.9611 55.8237C49.6467 55.1381 50.0318 54.2083 50.0318 53.2388ZM36.3316 51.87C36.0892 51.87 35.8568 51.9663 35.6854 52.1377C35.514 52.309 35.4177 52.5415 35.4177 52.7839V55.0503H33.1309C32.8886 55.0503 32.6561 55.1466 32.4847 55.318C32.3133 55.4894 32.217 55.7218 32.217 55.9642C32.217 56.2066 32.3133 56.4391 32.4847 56.6104C32.6561 56.7818 32.8886 56.8781 33.1309 56.8781H35.4136V59.1608C35.4136 59.4032 35.5099 59.6356 35.6813 59.807C35.8527 59.9784 36.0851 60.0747 36.3275 60.0747C36.5699 60.0747 36.8024 59.9784 36.9737 59.807C37.1451 59.6356 37.2414 59.4032 37.2414 59.1608V56.8781H39.5241C39.7665 56.8781 39.9989 56.7818 40.1703 56.6104C40.3417 56.4391 40.438 56.2066 40.438 55.9642C40.438 55.7218 40.3417 55.4894 40.1703 55.318C39.9989 55.1466 39.7665 55.0503 39.5241 55.0503H37.2414V52.7676C37.2382 52.5274 37.1405 52.298 36.9695 52.1293C36.7984 51.9605 36.5678 51.8659 36.3275 51.8659L36.3316 51.87ZM39.0692 62.3615V63.2754C39.0692 63.5177 39.1655 63.7502 39.3369 63.9216C39.5083 64.093 39.7407 64.1892 39.9831 64.1892H52.7573C52.9996 64.1892 53.2321 64.093 53.4035 63.9216C53.5749 63.7502 53.6712 63.5177 53.6712 63.2754V62.3615C53.6712 59.1649 48.7971 58.251 46.36 58.251C43.923 58.251 39.0692 59.173 39.0692 62.3615Z" fill="#74B5FF"/>
<path d="M82.6151 61.8538C83.0213 58.4053 82.5664 54.7335 83.0944 51.2932C73.6265 44.4573 69.975 60.7896 82.6151 61.8538Z" fill="#FEA97A"/>
<path d="M80.9457 55.7936C80.6614 54.8472 79.8368 53.6328 77.9319 53.978" stroke="#D16D4A" stroke-width="1.21852" stroke-linecap="round" stroke-linejoin="round"/>
<path d="M118.955 113.219L117.956 137.512" stroke="#2975CC" stroke-width="1.21852" stroke-miterlimit="10" stroke-linecap="round"/>
<path d="M161.94 157.747H108.033L128.5 111C129.471 108.786 131.42 107.393 133.557 107.393H182.452C184.743 107.393 186.225 110.212 185.186 112.588L166.993 154.14C166.026 156.333 164.073 157.747 161.94 157.747Z" fill="#2975CC"/>
<path d="M154.569 123.56H149.467C144.813 123.56 143.212 124.66 141.112 129.315L138.809 134.413C136.709 139.067 137.315 140.168 141.965 140.168H147.071C151.726 140.168 153.326 139.067 155.426 134.413L157.729 129.315C159.825 124.664 159.211 123.56 154.569 123.56ZM152.083 135.412H150.865C150.406 135.412 150.397 135.05 149.882 134.218C149.419 133.527 149.134 133.434 148.96 133.434C148.712 133.434 148.618 133.503 148.492 133.84L148.086 134.929C147.981 135.221 147.822 135.396 147.046 135.396C146.389 135.394 145.751 135.176 145.229 134.776C144.707 134.376 144.331 133.816 144.159 133.182C143.427 131.074 143.59 129.49 143.712 129.161C143.747 129.051 143.819 128.957 143.916 128.894C144.013 128.832 144.129 128.806 144.244 128.82H145.462C145.767 128.82 145.832 128.962 145.832 129.287C145.804 131.009 146.238 132.536 146.644 132.536C146.799 132.536 146.892 132.467 147.051 132.077L147.7 130.294C147.952 129.482 147.546 129.405 147.652 129.112C147.686 129.032 147.742 128.962 147.814 128.913C147.886 128.863 147.97 128.835 148.058 128.832H149.959C150.215 128.832 150.259 128.974 150.15 129.279L149.276 131.683C149.183 131.939 149.276 132.037 149.337 132.037C149.492 132.037 149.654 131.943 150.036 131.663C150.912 130.92 151.712 130.091 152.424 129.189C152.498 129.085 152.596 129 152.708 128.941C152.821 128.882 152.947 128.85 153.074 128.848H154.293C154.654 128.848 154.67 129.035 154.496 129.295C154.09 129.998 151.852 132.085 151.852 132.085C151.644 132.297 151.563 132.39 151.657 132.626C151.75 132.861 152.01 133.166 152.172 133.495C152.445 133.923 152.617 134.408 152.676 134.912C152.675 134.986 152.657 135.058 152.626 135.124C152.594 135.19 152.549 135.249 152.493 135.296C152.437 135.344 152.371 135.378 152.3 135.398C152.23 135.418 152.156 135.423 152.083 135.412Z" fill="white"/>
</svg>
