<svg width="210" height="175" viewBox="0 0 210 175" fill="none" xmlns="http://www.w3.org/2000/svg">
<path d="M167.511 155.967L155.927 132.929C154.963 131.333 154.231 129.607 153.754 127.805C152.311 122.367 148.907 109.844 145.804 100.729C140.944 86.4502 135.754 76.7613 111.712 70.1109C87.6707 63.4604 59.7648 57.4706 51.4538 55.9101C47.1071 55.093 42.617 61.0088 49.8586 66.3423C52.9665 68.633 59.2692 73.9316 67.4324 76.1658C92.339 82.9858 83.4631 86.8805 83.4631 86.8805C83.4631 86.8805 51.7624 74.4054 49.8977 73.7099C42.8169 71.0802 39.9307 77.083 43.7254 80.882C46.7246 83.8813 71.44 98.4993 71.44 98.4993C71.44 98.4993 61.6251 93.9439 55.3876 91.2272C47.7809 87.915 45.8248 91.4619 46.8333 95.0958C48.6024 101.563 79.6466 116.142 79.6466 116.142C79.6466 116.142 63.2291 112.978 58.8737 111.974C53.1708 110.67 50.7888 116.512 59.8647 121.832C68.9407 127.153 92.2347 136.076 100.311 139.741C104.877 141.81 109.612 143.484 114.464 144.744C115.821 145.095 117.085 145.738 118.167 146.629C119.25 147.519 120.125 148.635 120.732 149.899L124.209 155.78L167.511 155.967Z" fill="#FEA472"/>
<path d="M124.848 117.429C125.852 121.441 129.025 125.366 132.103 126.288" stroke="#DB6943" stroke-width="0.869343" stroke-miterlimit="10" stroke-linecap="round"/>
<path d="M91.8912 23.3384L56.8268 31.7177C51.2418 33.0524 47.7962 38.6619 49.1308 44.247L70.0429 131.755C71.3776 137.34 76.9871 140.786 82.5721 139.451L117.637 131.072C123.222 129.737 126.668 124.128 125.333 118.543L104.421 31.0343C103.086 25.4493 97.4762 22.0037 91.8912 23.3384Z" fill="white" stroke="#3F89E0" stroke-width="2.60803" stroke-linecap="round" stroke-linejoin="round"/>
<path d="M92.3687 25.8967L57.558 34.2155C53.3949 35.2103 50.8266 39.3917 51.8214 43.5548L72.7557 131.156C73.7506 135.319 77.9319 137.888 82.095 136.893L116.906 128.574C121.069 127.579 123.637 123.398 122.643 119.235L101.708 31.6333C100.713 27.4702 96.5318 24.9019 92.3687 25.8967Z" fill="white"/>
<path d="M93.2644 80.556C93.3768 80.309 93.5693 80.1072 93.8107 79.9834C94.0521 79.8595 94.3283 79.8208 94.5945 79.8736C94.8585 79.9387 95.0956 80.0848 95.2725 80.2913C95.4495 80.4979 95.5574 80.7546 95.5812 81.0255C95.742 83.2032 92.4429 82.5512 93.2644 80.556Z" stroke="#252833" stroke-width="0.869343" stroke-miterlimit="10" stroke-linecap="round"/>
<path d="M97.0037 31.3212L55.8811 41.1484C54.5152 41.4748 53.6725 42.8467 53.9989 44.2126L64.41 87.7788C64.7364 89.1447 66.1083 89.9874 67.4742 89.661L108.597 79.8338C109.962 79.5074 110.805 78.1355 110.479 76.7696L100.068 33.2034C99.7415 31.8375 98.3696 30.9948 97.0037 31.3212Z" fill="#E6F5FF"/>
<path d="M93.0094 70.3515L79.9162 73.4804C77.8569 73.9725 76.5864 76.0409 77.0785 78.1003L77.0795 78.1045C77.5716 80.1638 79.64 81.4343 81.6994 80.9422L94.7925 77.8133C96.8519 77.3212 98.1224 75.2528 97.6302 73.1934L97.6292 73.1892C97.1371 71.1298 95.0687 69.8593 93.0094 70.3515Z" fill="#43BD67"/>
<path d="M92.6109 77.0917C94.0095 76.7575 94.8723 75.3526 94.5381 73.954C94.2038 72.5554 92.7991 71.6926 91.4005 72.0268C90.0019 72.361 89.1391 73.7659 89.4733 75.1645C89.8075 76.5631 91.2123 77.4259 92.6109 77.0917Z" fill="white"/>
<path d="M87.9483 110.89L74.7706 114.039C72.947 114.475 71.822 116.307 72.2578 118.13L75.0705 129.9C75.5062 131.723 77.3378 132.848 79.1613 132.413L92.339 129.264C94.1625 128.828 95.2875 126.996 94.8518 125.173L92.0391 113.403C91.6033 111.579 89.7718 110.454 87.9483 110.89Z" fill="#E6F5FF"/>
<path d="M82.9443 89.6292L69.7666 92.7783C67.9431 93.2141 66.8181 95.0456 67.2539 96.8692L70.0665 108.639C70.5023 110.462 72.3338 111.587 74.1574 111.152L87.335 108.003C89.1586 107.567 90.2836 105.735 89.8478 103.912L87.0352 92.142C86.5994 90.3185 84.7678 89.1935 82.9443 89.6292Z" fill="#E6F5FF"/>
<path d="M112.637 115.67C114.032 115.339 114.895 113.941 114.564 112.546C114.233 111.151 112.834 110.288 111.44 110.619C110.045 110.95 109.182 112.349 109.513 113.744C109.844 115.138 111.242 116.001 112.637 115.67Z" fill="white"/>
<path d="M108.152 89.2949L95.0588 92.4238C92.9995 92.9159 91.729 94.9843 92.2211 97.0432L92.2221 97.0482C92.7142 99.1072 94.7826 100.378 96.842 99.8852L109.935 96.7572C111.994 96.2647 113.265 94.1963 112.773 92.1369L112.772 92.1327C112.279 90.0733 110.211 88.8028 108.152 89.2949Z" fill="#ADD3FF" fill-opacity="0.32"/>
<path d="M97.8298 97.8313C99.2246 97.5013 100.087 96.1021 99.7565 94.7073C99.4258 93.3124 98.0269 92.4498 96.6321 92.7806C95.2373 93.1113 94.3746 94.5101 94.7054 95.905C95.0361 97.3003 96.435 98.1623 97.8298 97.8313Z" fill="white"/>
<path d="M129.338 83.6683C129.338 83.6683 112.329 80.5343 101.889 77.4916C100.711 77.1482 99.0982 76.5396 97.629 75.9485C94.6471 74.7488 91.9174 76.3832 91.6001 79.591C91.3306 82.3425 92.5042 85.6764 98.0419 88.2845C102.901 90.5839 113.825 95.3827 119.341 97.5123C124.179 99.3773 121.831 117.307 129.773 122.471" fill="#FEA472"/>
<path d="M116.489 80.5343C119.654 81.3645 123.474 82.4338 125.908 83.1423C127.526 83.6007 129.071 84.284 130.499 85.1722L139.422 90.723" stroke="#DB6943" stroke-width="0.869343" stroke-miterlimit="10" stroke-linecap="round"/>
<path d="M58.6992 31.9423L60.9551 33.7592C61.5569 34.2435 62.2612 34.5841 63.0144 34.7551C63.7677 34.926 64.55 34.9229 65.3018 34.7459L85.7314 29.9341C86.5765 29.7347 87.3562 29.3219 87.9963 28.7351C88.6363 28.1484 89.1151 27.4073 89.387 26.5827L89.9695 24.8136L58.6992 31.9423Z" fill="#3F89E0"/>
<path d="M62.5598 46.7558C62.4903 46.7819 65.4808 45.7996 66.6805 45.4084C66.8205 45.3611 66.972 45.3606 67.1123 45.4069C67.2526 45.4531 67.3741 45.5436 67.4586 45.6648C68.5018 47.1427 70.8403 51.0982 70.8403 51.0982" stroke="#B3D2FA" stroke-width="0.434672" stroke-miterlimit="10"/>
<g opacity="0.63">
<path d="M81.3796 66.7853C82.2182 66.5866 82.737 65.7457 82.5383 64.9071C82.3396 64.0685 81.4987 63.5498 80.6601 63.7485C79.8214 63.9472 79.3027 64.7881 79.5014 65.6267C79.7001 66.4653 80.541 66.984 81.3796 66.7853Z" fill="#B3D2FA"/>
<path d="M89.2645 64.9178C90.1031 64.7191 90.6218 63.8782 90.4231 63.0395C90.2244 62.2009 89.3835 61.6822 88.5449 61.8809C87.7063 62.0796 87.1876 62.9205 87.3863 63.7591C87.585 64.5977 88.4259 65.1165 89.2645 64.9178Z" fill="#B3D2FA"/>
</g>
<path d="M89.6964 60.6654L77.8951 63.5473L70.3535 50.555L90.7136 45.7301L89.6964 60.6654Z" fill="#B3D2FA"/>
<g opacity="0.1">
<path opacity="0.1" d="M75.3565 35.2198L63.064 55.1538" stroke="#B3D2FA" stroke-width="0.326004" stroke-miterlimit="10"/>
<path opacity="0.1" d="M78.1124 36.9193L65.8199 56.8534" stroke="#B3D2FA" stroke-width="0.326004" stroke-miterlimit="10"/>
<path opacity="0.1" d="M80.8726 38.6189L68.5757 58.5529" stroke="#B3D2FA" stroke-width="0.326004" stroke-miterlimit="10"/>
<path opacity="0.1" d="M83.6283 40.3228L71.3315 60.2525" stroke="#B3D2FA" stroke-width="0.326004" stroke-miterlimit="10"/>
<path opacity="0.1" d="M86.3841 42.0224L74.0916 61.9564" stroke="#B3D2FA" stroke-width="0.326004" stroke-miterlimit="10"/>
<path opacity="0.1" d="M89.14 43.7219L76.8475 63.656" stroke="#B3D2FA" stroke-width="0.326004" stroke-miterlimit="10"/>
<path opacity="0.1" d="M91.8957 45.4215L79.6032 65.3555" stroke="#B3D2FA" stroke-width="0.326004" stroke-miterlimit="10"/>
<path opacity="0.1" d="M94.6559 47.1211L82.3591 67.0551" stroke="#B3D2FA" stroke-width="0.326004" stroke-miterlimit="10"/>
<path opacity="0.1" d="M97.4118 48.825L85.1149 68.7547" stroke="#B3D2FA" stroke-width="0.326004" stroke-miterlimit="10"/>
<path opacity="0.1" d="M100.167 50.5246L87.8751 70.4543" stroke="#B3D2FA" stroke-width="0.326004" stroke-miterlimit="10"/>
<path opacity="0.1" d="M102.923 52.2241L90.6308 72.1582" stroke="#B3D2FA" stroke-width="0.326004" stroke-miterlimit="10"/>
<path opacity="0.1" d="M105.679 53.9237L93.3867 73.8577" stroke="#B3D2FA" stroke-width="0.326004" stroke-miterlimit="10"/>
<path opacity="0.1" d="M100.584 43.0569L80.6551 30.7644" stroke="#B3D2FA" stroke-width="0.326004" stroke-miterlimit="10"/>
<path opacity="0.1" d="M98.8853 45.8127L78.9512 33.5202" stroke="#B3D2FA" stroke-width="0.326004" stroke-miterlimit="10"/>
<path opacity="0.1" d="M97.1857 48.5729L77.2516 36.276" stroke="#B3D2FA" stroke-width="0.326004" stroke-miterlimit="10"/>
<path opacity="0.1" d="M95.4861 51.3287L75.5521 39.0318" stroke="#B3D2FA" stroke-width="0.326004" stroke-miterlimit="10"/>
<path opacity="0.1" d="M93.7866 54.0845L73.8526 41.792" stroke="#B3D2FA" stroke-width="0.326004" stroke-miterlimit="10"/>
<path opacity="0.1" d="M92.0826 56.8403L72.1529 44.5478" stroke="#B3D2FA" stroke-width="0.326004" stroke-miterlimit="10"/>
<path opacity="0.1" d="M90.3831 59.5962L70.449 47.3036" stroke="#B3D2FA" stroke-width="0.326004" stroke-miterlimit="10"/>
<path opacity="0.1" d="M88.6836 62.3563L68.7496 50.0595" stroke="#B3D2FA" stroke-width="0.326004" stroke-miterlimit="10"/>
<path opacity="0.1" d="M86.9839 65.1121L67.0499 52.8153" stroke="#B3D2FA" stroke-width="0.326004" stroke-miterlimit="10"/>
<path opacity="0.1" d="M85.2844 67.868L65.3504 55.5754" stroke="#B3D2FA" stroke-width="0.326004" stroke-miterlimit="10"/>
<path opacity="0.1" d="M83.5849 70.6238L63.6508 58.3313" stroke="#B3D2FA" stroke-width="0.326004" stroke-miterlimit="10"/>
<path opacity="0.1" d="M81.8809 73.3796L61.9512 61.0871" stroke="#B3D2FA" stroke-width="0.326004" stroke-miterlimit="10"/>
</g>
<path d="M121.21 16.9071L120.866 18.7892L138.51 23.3011L138.77 22.4404L121.21 16.9071Z" fill="#FFB742"/>
<path d="M138.251 24.0999C139.801 20.1593 137.25 15.4662 132.552 13.6176C127.854 11.769 122.789 13.4648 121.238 17.4054C119.688 21.346 122.239 26.0391 126.937 27.8877C131.635 29.7364 136.7 28.0405 138.251 24.0999Z" fill="#FFB742"/>
<path d="M138.631 22.841C140.077 19.1662 137.407 14.6751 132.666 12.8097C127.926 10.9444 122.911 12.4112 121.465 16.0859C120.019 19.7607 122.689 24.2518 127.43 26.1172C132.17 27.9825 137.185 26.5157 138.631 22.841Z" fill="#FFDD65"/>
<path d="M137.09 22.2345C138.277 19.2188 136.086 15.5334 132.197 14.0029C128.307 12.4725 124.193 13.6766 123.006 16.6924C121.819 19.7081 124.01 23.3935 127.899 24.924C131.788 26.4544 135.903 25.2503 137.09 22.2345Z" stroke="#FFB742" stroke-width="0.434672" stroke-miterlimit="10"/>
<path d="M125.33 15.6595C127.721 13.5731 132.25 14.6381 134.419 16.7158" stroke="white" stroke-width="0.434672" stroke-miterlimit="10" stroke-linecap="round"/>
<path d="M126.022 55.5536L125.83 56.6272L140.966 59.8438L141.261 58.6267L126.022 55.5536Z" fill="#FFB742"/>
<path d="M140.921 60.018C141.784 56.5541 139.121 52.9082 134.972 51.8746C130.823 50.841 126.761 52.8111 125.898 56.2749C125.035 59.7387 127.698 63.3847 131.847 64.4183C135.996 65.4519 140.058 63.4818 140.921 60.018Z" fill="#FFB742"/>
<path d="M141.195 58.9349C142 55.704 139.272 52.2427 135.103 51.2038C130.933 50.165 126.9 51.942 126.095 55.1729C125.29 58.4038 128.018 61.8651 132.188 62.9039C136.357 63.9428 140.39 62.1658 141.195 58.9349Z" fill="#FFDD65"/>
<path d="M139.841 58.5977C140.502 55.9468 138.263 53.1067 134.841 52.2541C131.419 51.4016 128.11 52.8594 127.449 55.5103C126.789 58.1612 129.028 61.0013 132.449 61.8538C135.871 62.7064 139.181 61.2485 139.841 58.5977Z" stroke="#FFB742" stroke-width="0.434672" stroke-miterlimit="10"/>
<path d="M129.064 54.3974C130.933 52.2762 135.028 52.4109 137.223 54.2757" stroke="white" stroke-width="0.434672" stroke-miterlimit="10" stroke-linecap="round"/>
<path d="M102.432 40.3053L102.015 41.379L115.172 47.121L115.585 46.2212L102.432 40.3053Z" fill="#FFB742"/>
<path d="M115.185 47.1096C116.531 44.201 114.704 40.4931 111.105 38.8277C107.506 37.1624 103.497 38.1702 102.151 41.0788C100.806 43.9873 102.632 47.6952 106.232 49.3606C109.831 51.026 113.84 50.0181 115.185 47.1096Z" fill="#FFB742"/>
<path d="M115.652 46.1103C116.89 43.4348 114.96 39.9085 111.341 38.234C107.722 36.5596 103.785 37.3711 102.547 40.0465C101.309 42.722 103.239 46.2484 106.858 47.9228C110.477 49.5972 114.414 48.7857 115.652 46.1103Z" fill="#FFDD65"/>
<path d="M114.521 45.4693C115.502 43.3494 113.889 40.517 110.92 39.143C107.95 37.769 104.748 38.3736 103.767 40.4935C102.786 42.6134 104.398 45.4457 107.368 46.8198C110.337 48.1938 113.54 47.5892 114.521 45.4693Z" stroke="#FFB742" stroke-width="0.434672" stroke-miterlimit="10"/>
<path d="M105.157 40.3184C107.231 38.7101 110.943 39.549 112.612 41.6224" stroke="white" stroke-width="0.434672" stroke-miterlimit="10" stroke-linecap="round"/>
<path d="M113.049 110.868L99.9553 113.997C97.896 114.489 96.6255 116.557 97.1176 118.617L97.1186 118.621C97.6107 120.68 99.6791 121.951 101.739 121.459L114.832 118.33C116.891 117.838 118.162 115.769 117.67 113.71L117.669 113.706C117.177 111.646 115.108 110.376 113.049 110.868Z" fill="#ADD3FF" fill-opacity="0.32"/>
<path d="M103.132 119.841C104.531 119.507 105.394 118.102 105.06 116.704C104.725 115.305 103.321 114.442 101.922 114.776C100.524 115.111 99.6605 116.515 99.9947 117.914C100.329 119.313 101.734 120.175 103.132 119.841Z" fill="white"/>
<path d="M76.2817 102.042C76.5889 101.934 76.9196 101.913 77.238 101.981C77.4536 102.037 77.6475 102.156 77.7943 102.324C77.9968 102.574 78.1275 102.875 78.1725 103.193L78.5811 104.906C78.6885 105.213 78.7096 105.544 78.642 105.862C78.5858 106.078 78.4662 106.272 78.2986 106.419C78.0484 106.621 77.7479 106.752 77.4292 106.797L75.7166 107.205C75.4094 107.313 75.0787 107.334 74.7603 107.266C74.5447 107.21 74.3508 107.09 74.204 106.923C74.0015 106.673 73.8708 106.372 73.8258 106.054L73.4172 104.341C73.3098 104.034 73.2887 103.703 73.3563 103.385C73.4125 103.169 73.5321 102.975 73.6997 102.828C73.9499 102.626 74.2504 102.495 74.5691 102.45L76.2817 102.042ZM82.9582 100.446C83.2654 100.339 83.5962 100.318 83.9145 100.385C84.1302 100.442 84.324 100.561 84.4709 100.729C84.6733 100.979 84.804 101.28 84.8491 101.598L85.2577 103.311C85.3651 103.618 85.3861 103.949 85.3185 104.267C85.2623 104.483 85.1427 104.677 84.9751 104.823C84.7249 105.026 84.4244 105.157 84.1058 105.202L82.3932 105.61C82.086 105.718 81.7552 105.739 81.4369 105.671C81.2212 105.615 81.0274 105.495 80.8805 105.328C80.6781 105.077 80.5474 104.777 80.5024 104.458L80.0938 102.746C79.9863 102.439 79.9653 102.108 80.0329 101.789C80.0891 101.574 80.2087 101.38 80.3763 101.233C80.6265 101.031 80.927 100.9 81.2456 100.855L82.9582 100.446ZM80.7197 93.457C81.0362 93.4957 81.3365 93.6188 81.589 93.8134L83.0886 94.7349C83.3813 94.8769 83.6293 95.0964 83.8059 95.3695C83.9197 95.5624 83.9727 95.7851 83.958 96.0085C83.9193 96.325 83.7962 96.6252 83.6016 96.8782L82.6801 98.3772C82.5381 98.6702 82.3186 98.9182 82.0454 99.0942C81.8526 99.2082 81.6299 99.2612 81.4065 99.2472C81.09 99.2082 80.7897 99.0852 80.5371 98.8902L79.0375 97.9692C78.7449 97.8272 78.4968 97.6072 78.3203 97.3342C78.2064 97.1412 78.1534 96.9192 78.1682 96.6952C78.2069 96.3788 78.33 96.0785 78.5246 95.8259L79.4461 94.3263C79.5881 94.0337 79.8076 93.7856 80.0807 93.6091C80.2773 93.4927 80.5049 93.4395 80.7327 93.457H80.7197ZM74.6864 95.3695C74.9936 95.2621 75.3244 95.2411 75.6427 95.3087C75.8584 95.3648 76.0522 95.4845 76.1991 95.6521C76.4015 95.9023 76.5322 96.2027 76.5773 96.5212L76.9859 98.2342C77.0933 98.5412 77.1143 98.8722 77.0467 99.1902C76.9949 99.4062 76.8799 99.6012 76.7164 99.7512C76.4661 99.9532 76.1657 100.084 75.847 100.129L74.1344 100.538C73.8272 100.645 73.4965 100.666 73.1781 100.598C72.9625 100.542 72.7686 100.423 72.6218 100.255C72.4193 100.005 72.2886 99.7042 72.2436 99.3862L71.835 97.6732C71.7276 97.3662 71.7065 97.0352 71.7741 96.7172C71.8303 96.5012 71.9499 96.3075 72.1175 96.1606C72.3677 95.9582 72.6682 95.8275 72.9869 95.7825L74.6864 95.3695Z" fill="#B3D2FA"/>
<path d="M81.75 122.632C82.1233 122.547 82.5151 122.612 82.8405 122.814C83.1659 123.016 83.3988 123.338 83.4886 123.71L84.032 125.979C84.117 126.352 84.0515 126.744 83.8497 127.069C83.648 127.395 83.3262 127.628 82.954 127.718L80.685 128.261C80.3117 128.346 79.9199 128.28 79.5945 128.079C79.2691 127.877 79.0362 127.555 78.9463 127.183L78.403 124.914C78.318 124.541 78.3835 124.149 78.5852 123.823C78.787 123.498 79.1088 123.265 79.481 123.175L81.75 122.632ZM89.6523 124.34C89.6897 124.331 89.7285 124.33 89.7665 124.336C89.8045 124.342 89.8409 124.355 89.8736 124.375C89.9064 124.396 89.9348 124.422 89.9572 124.453C89.9797 124.485 89.9957 124.52 90.0044 124.558L90.2087 125.427C90.2177 125.464 90.2192 125.503 90.2132 125.541C90.2071 125.579 90.1936 125.615 90.1734 125.648C90.1532 125.681 90.1267 125.709 90.0954 125.732C90.0642 125.754 90.0288 125.77 89.9913 125.779L89.122 125.983C89.0846 125.992 89.0458 125.994 89.0078 125.988C88.9698 125.982 88.9334 125.968 88.9006 125.948C88.8679 125.928 88.8395 125.901 88.8171 125.87C88.7946 125.839 88.7786 125.803 88.7699 125.766L88.5656 124.897C88.5566 124.859 88.555 124.82 88.5611 124.782C88.5671 124.744 88.5807 124.708 88.6009 124.675C88.6211 124.642 88.6476 124.614 88.6788 124.592C88.7101 124.569 88.7455 124.553 88.7829 124.544L89.6523 124.34ZM86.5357 125.083C86.5731 125.074 86.6119 125.073 86.6499 125.079C86.6879 125.085 86.7243 125.099 86.757 125.119C86.7898 125.139 86.8182 125.165 86.8406 125.197C86.8631 125.228 86.8791 125.263 86.8878 125.301L87.0921 126.17C87.1011 126.208 87.1026 126.246 87.0966 126.284C87.0905 126.322 87.077 126.359 87.0568 126.392C87.0366 126.424 87.0101 126.453 86.9788 126.475C86.9476 126.498 86.9122 126.514 86.8747 126.522L86.0054 126.727C85.968 126.736 85.9292 126.737 85.8912 126.731C85.8532 126.725 85.8168 126.711 85.784 126.691C85.7513 126.671 85.7229 126.645 85.7005 126.613C85.678 126.582 85.662 126.547 85.6533 126.509L85.449 125.64C85.44 125.602 85.4384 125.564 85.4445 125.526C85.4506 125.488 85.4641 125.451 85.4843 125.419C85.5045 125.386 85.531 125.357 85.5622 125.335C85.5935 125.312 85.6289 125.296 85.6663 125.288L86.5357 125.083ZM81.8456 123.658L79.8591 124.132C79.7842 124.149 79.7134 124.181 79.6509 124.226C79.5884 124.271 79.5354 124.328 79.495 124.393C79.4546 124.458 79.4275 124.531 79.4154 124.607C79.4033 124.683 79.4064 124.761 79.4245 124.836L79.8983 126.822C79.9156 126.897 79.9477 126.968 79.9926 127.03C80.0374 127.093 80.0943 127.146 80.1597 127.186C80.2252 127.227 80.298 127.254 80.374 127.266C80.45 127.278 80.5276 127.275 80.6024 127.257L82.5889 126.783C82.6638 126.766 82.7346 126.734 82.7971 126.689C82.8596 126.644 82.9126 126.587 82.953 126.522C82.9934 126.456 83.0205 126.383 83.0326 126.307C83.0447 126.231 83.0416 126.154 83.0235 126.079L82.5454 124.092C82.528 124.018 82.4961 123.948 82.4515 123.885C82.4069 123.823 82.3505 123.77 82.2855 123.73C82.2205 123.69 82.1482 123.663 82.0728 123.65C81.9973 123.638 81.9201 123.64 81.8456 123.658ZM87.718 123.154C87.7554 123.145 87.7942 123.143 87.8322 123.149C87.8702 123.155 87.9066 123.169 87.9393 123.189C87.9721 123.209 88.0005 123.236 88.0229 123.267C88.0454 123.298 88.0614 123.333 88.0701 123.371L88.2744 124.24C88.2834 124.278 88.2849 124.316 88.2789 124.354C88.2728 124.392 88.2593 124.429 88.2391 124.462C88.2189 124.494 88.1924 124.523 88.1612 124.545C88.1299 124.568 88.0945 124.584 88.057 124.592L87.1877 124.797C87.1503 124.806 87.1115 124.807 87.0735 124.801C87.0355 124.795 86.9991 124.782 86.9663 124.761C86.9336 124.741 86.9052 124.715 86.8828 124.683C86.8603 124.652 86.8443 124.617 86.8356 124.579L86.6313 123.71C86.6223 123.673 86.6208 123.634 86.6268 123.596C86.6329 123.558 86.6464 123.521 86.6666 123.489C86.6868 123.456 86.7133 123.427 86.7445 123.405C86.7758 123.383 86.8112 123.367 86.8487 123.358L87.718 123.154ZM81.4978 124.644C81.5352 124.635 81.5741 124.634 81.6121 124.64C81.65 124.646 81.6865 124.66 81.7192 124.68C81.7519 124.7 81.7803 124.726 81.8028 124.758C81.8252 124.789 81.8412 124.824 81.8499 124.862L82.0542 125.731C82.0633 125.769 82.0648 125.807 82.0587 125.845C82.0527 125.883 82.0392 125.92 82.019 125.952C81.9987 125.985 81.9722 126.014 81.941 126.036C81.9098 126.059 81.8744 126.075 81.8369 126.083L80.9675 126.288C80.9301 126.297 80.8913 126.298 80.8533 126.292C80.8153 126.286 80.7789 126.272 80.7462 126.252C80.7135 126.232 80.6851 126.206 80.6626 126.174C80.6402 126.143 80.6241 126.108 80.6155 126.07L80.4112 125.201C80.4021 125.163 80.4006 125.125 80.4067 125.087C80.4127 125.049 80.4262 125.012 80.4464 124.979C80.4666 124.947 80.4931 124.918 80.5244 124.896C80.5556 124.873 80.591 124.857 80.6285 124.849L81.4978 124.644ZM88.8873 121.224C88.9247 121.215 88.9635 121.213 89.0015 121.219C89.0395 121.225 89.0759 121.239 89.1086 121.259C89.1413 121.279 89.1698 121.306 89.1922 121.337C89.2146 121.368 89.2307 121.403 89.2393 121.441L89.4436 122.31C89.4527 122.348 89.4542 122.386 89.4482 122.424C89.4421 122.462 89.4286 122.499 89.4084 122.532C89.3882 122.564 89.3617 122.593 89.3304 122.615C89.2992 122.638 89.2638 122.654 89.2263 122.662L88.357 122.867C88.3196 122.876 88.2807 122.877 88.2428 122.871C88.2048 122.865 88.1684 122.852 88.1356 122.831C88.1029 122.811 88.0745 122.785 88.052 122.753C88.0296 122.722 88.0136 122.687 88.0049 122.649L87.8006 121.78C87.7916 121.743 87.79 121.704 87.7961 121.666C87.8021 121.628 87.8156 121.591 87.8359 121.559C87.8561 121.526 87.8826 121.497 87.9138 121.475C87.9451 121.453 87.9804 121.437 88.0179 121.428L88.8873 121.224ZM85.7707 121.967C85.8081 121.958 85.8469 121.956 85.8849 121.962C85.9229 121.968 85.9593 121.982 85.992 122.002C86.0248 122.022 86.0532 122.049 86.0756 122.08C86.098 122.111 86.1141 122.147 86.1228 122.184L86.327 123.054C86.3361 123.091 86.3376 123.13 86.3316 123.168C86.3255 123.206 86.312 123.242 86.2918 123.275C86.2716 123.308 86.2451 123.336 86.2138 123.358C86.1826 123.381 86.1472 123.397 86.1097 123.406L85.2404 123.61C85.203 123.619 85.1642 123.621 85.1262 123.614C85.0882 123.608 85.0518 123.595 85.019 123.575C84.9863 123.554 84.9579 123.528 84.9354 123.497C84.913 123.465 84.897 123.43 84.8883 123.393L84.684 122.523C84.675 122.486 84.6734 122.447 84.6795 122.409C84.6855 122.371 84.6991 122.335 84.7193 122.302C84.7395 122.269 84.766 122.241 84.7972 122.218C84.8285 122.196 84.8638 122.18 84.9013 122.171L85.7707 121.967ZM86.4792 114.903C86.8525 114.818 87.2443 114.884 87.5697 115.086C87.8951 115.287 88.128 115.609 88.2179 115.981L88.7612 118.25C88.8462 118.624 88.7807 119.016 88.579 119.341C88.3772 119.666 88.0554 119.899 87.6832 119.989L85.4142 120.532C85.0409 120.617 84.6491 120.552 84.3237 120.35C83.9983 120.148 83.7654 119.827 83.6755 119.454L83.1322 117.185C83.0472 116.812 83.1127 116.42 83.3144 116.095C83.5162 115.77 83.838 115.537 84.2102 115.447L86.4792 114.903ZM80.2416 116.394C80.615 116.309 81.0068 116.375 81.3322 116.577C81.6576 116.778 81.8904 117.1 81.9803 117.472L82.5237 119.741C82.6087 120.115 82.5432 120.506 82.3414 120.832C82.1397 121.157 81.8179 121.39 81.4457 121.48L79.1767 122.023C78.8034 122.108 78.4116 122.043 78.0862 121.841C77.7608 121.639 77.5279 121.318 77.438 120.945L76.8947 118.676C76.8097 118.303 76.8752 117.911 77.0769 117.586C77.2787 117.26 77.6005 117.028 77.9727 116.938L80.2416 116.394ZM86.5748 115.929L84.5884 116.403C84.5134 116.42 84.4426 116.453 84.3801 116.497C84.3176 116.542 84.2646 116.599 84.2242 116.665C84.1838 116.73 84.1568 116.803 84.1447 116.879C84.1326 116.955 84.1356 117.032 84.1537 117.107L84.6275 119.094C84.6449 119.169 84.6769 119.239 84.7218 119.302C84.7667 119.364 84.8235 119.417 84.889 119.458C84.9544 119.498 85.0273 119.525 85.1032 119.537C85.1792 119.55 85.2569 119.546 85.3317 119.528L87.3181 119.055C87.3931 119.037 87.4638 119.005 87.5263 118.96C87.5888 118.915 87.6418 118.859 87.6822 118.793C87.7226 118.728 87.7497 118.655 87.7618 118.579C87.7739 118.503 87.7708 118.425 87.7528 118.35L87.279 116.364C87.2428 116.217 87.1509 116.09 87.0227 116.01C86.8945 115.929 86.7401 115.902 86.5922 115.934L86.5748 115.929ZM80.3373 117.42L78.3508 117.894C78.2759 117.911 78.2051 117.943 78.1426 117.988C78.0801 118.033 78.0271 118.09 77.9867 118.155C77.9463 118.221 77.9192 118.294 77.9071 118.37C77.895 118.446 77.8981 118.523 77.9161 118.598L78.3899 120.585C78.4073 120.66 78.4394 120.73 78.4842 120.793C78.5291 120.855 78.5859 120.908 78.6514 120.949C78.7169 120.989 78.7897 121.016 78.8657 121.028C78.9417 121.04 79.0193 121.037 79.0941 121.019L81.0806 120.546C81.1555 120.528 81.2263 120.496 81.2888 120.451C81.3513 120.406 81.4043 120.35 81.4447 120.284C81.4851 120.219 81.5121 120.146 81.5243 120.07C81.5364 119.994 81.5333 119.916 81.5152 119.841L81.0632 117.855C81.0458 117.779 81.0136 117.708 80.9685 117.645C80.9233 117.583 80.8661 117.529 80.8001 117.489C80.7341 117.448 80.6608 117.422 80.5843 117.41C80.5078 117.398 80.4297 117.402 80.3547 117.42H80.3373ZM86.2097 116.916C86.2471 116.907 86.2859 116.905 86.3239 116.911C86.3619 116.918 86.3983 116.931 86.431 116.951C86.4638 116.971 86.4922 116.998 86.5146 117.029C86.5371 117.06 86.5531 117.096 86.5618 117.133L86.7661 118.003C86.7751 118.04 86.7766 118.079 86.7706 118.117C86.7645 118.155 86.751 118.191 86.7308 118.224C86.7106 118.257 86.6841 118.285 86.6528 118.308C86.6216 118.33 86.5862 118.346 86.5487 118.355L85.6794 118.559C85.642 118.568 85.6032 118.57 85.5652 118.564C85.5272 118.558 85.4908 118.544 85.458 118.524C85.4253 118.504 85.3969 118.477 85.3745 118.446C85.352 118.415 85.336 118.379 85.3273 118.342L85.123 117.472C85.114 117.435 85.1124 117.396 85.1185 117.358C85.1245 117.32 85.1381 117.284 85.1583 117.251C85.1785 117.218 85.205 117.19 85.2362 117.167C85.2675 117.145 85.3029 117.129 85.3403 117.12L86.2097 116.916ZM79.9722 118.407C80.0095 118.398 80.0484 118.396 80.0864 118.402C80.1243 118.408 80.1608 118.422 80.1935 118.442C80.2262 118.462 80.2546 118.489 80.2771 118.52C80.2995 118.551 80.3155 118.587 80.3242 118.624L80.5285 119.494C80.5376 119.531 80.5391 119.57 80.533 119.608C80.527 119.646 80.5135 119.682 80.4933 119.715C80.4731 119.748 80.4466 119.776 80.4153 119.799C80.3841 119.821 80.3487 119.837 80.3112 119.846L79.4419 120.05C79.4045 120.059 79.3656 120.061 79.3276 120.054C79.2897 120.048 79.2532 120.035 79.2205 120.015C79.1878 119.995 79.1594 119.968 79.1369 119.937C79.1145 119.906 79.0985 119.87 79.0898 119.833L78.8855 118.963C78.8764 118.926 78.8749 118.887 78.881 118.849C78.887 118.811 78.9005 118.775 78.9207 118.742C78.941 118.709 78.9674 118.681 78.9987 118.658C79.0299 118.636 79.0653 118.62 79.1028 118.611L79.9722 118.407Z" fill="#B3D2FA"/>
<path d="M29 156.432C29 156.984 29.4477 157.432 30 157.432H179C179.552 157.432 180 156.984 180 156.432C180 155.88 179.552 155.432 179 155.432H30C29.4477 155.432 29 155.88 29 156.432Z" fill="black"/>
</svg>
